# xmcd
#
# Track frame offsets:
#	150
#	14864
#	28369
#	43894
#	62885
#	82908
#	97401
#	112119
#	125634
#	141160
#	160135
#	180158
#
# Disc length: 2595 seconds
#
# Revision: 1
# Processed by: cddbd v1.5.1PL2 Copyright (c) Steve Scherf et al.
# Submitted via: audiograbber 1.83.01
#
DISCID=b10a210c
DTITLE=Chartbuster - Cb20302
DYEAR=1900
DGENRE=Country
TTITLE0=Keith, Toby (Vocal) -  I Wanna Talk About Me
TTITLE1=Ketchum, Hal (Vocal) -  Don 'T Let Go
TTITLE2=Lawrence, Tracy (Vocal) -  Life Don't Have To Be So Hard
TTITLE3=Gilman,billy (Vocal) -  Elizabeth
TTITLE4=Emerson Drive (Vocal) -  Only God
TTITLE5=Watson, Gene (Vocal) -  Next To Nothing
TTITLE6=Keith, Toby  -  I Wanna Talk About Me
TTITLE7=Ketchum, Hal  -  Don 'T Let Go
TTITLE8=Lawrence, Tracy  -  Life Don't Have To Be So Hard
TTITLE9=Gilman,billy  -  Elizabeth
TTITLE10=Emerson Drive  -  Only God
TTITLE11=Watson, Gene  -  Next To Nothing
EXTD=
EXTT0=
EXTT1=
EXTT2=
EXTT3=
EXTT4=
EXTT5=
EXTT6=
EXTT7=
EXTT8=
EXTT9=
EXTT10=
EXTT11=
PLAYORDER=
